<?xml version="1.0" encoding="utf-8" standalone="no"?>
<!DOCTYPE svg PUBLIC "-//W3C//DTD SVG 1.1//EN"
  "http://www.w3.org/Graphics/SVG/1.1/DTD/svg11.dtd">
<!-- Created with matplotlib (https://matplotlib.org/) -->
<svg height="280.512pt" version="1.1" viewBox="0 0 219.355826 280.512" width="219.355826pt" xmlns="http://www.w3.org/2000/svg" xmlns:xlink="http://www.w3.org/1999/xlink">
 <defs>
  <style type="text/css">
*{stroke-linecap:butt;stroke-linejoin:round;}
  </style>
 </defs>
 <g id="figure_1">
  <g id="patch_1">
   <path d="M 0 280.512 
L 219.355826 280.512 
L 219.355826 0 
L 0 0 
z
" style="fill:#ffffff;"/>
  </g>
  <g id="axes_1">
   <g id="line2d_1">
    <path clip-path="url(#p630b15131d)" d="M 32.669217 257.459478 
L 32.293565 257.83513 
L 31.166609 257.83513 
L 30.790957 258.210783 
L 30.790957 258.962087 
L 31.542261 258.962087 
L 31.917913 259.337739 
L 31.917913 260.089043 
L 32.293565 260.464696 
L 32.293565 261.216 
L 33.04487 261.216 
L 33.04487 260.840348 
L 33.420522 260.464696 
L 34.171826 260.464696 
L 34.171826 257.459478 
L 32.669217 257.459478 
" style="fill:none;stroke:#000000;stroke-linecap:square;stroke-width:1.5;"/>
   </g>
   <g id="line2d_2">
    <path clip-path="url(#p630b15131d)" d="M 68.731826 256.708174 
L 69.107478 256.332522 
L 69.858783 256.332522 
L 70.234435 256.708174 
L 69.858783 257.083826 
L 69.48313 257.083826 
L 69.107478 257.459478 
L 67.60487 257.459478 
L 67.229217 257.083826 
L 67.60487 256.708174 
L 68.731826 256.708174 
" style="fill:none;stroke:#000000;stroke-linecap:square;stroke-width:1.5;"/>
   </g>
   <g id="line2d_3">
    <path clip-path="url(#p630b15131d)" d="M 72.864 256.332522 
L 73.239652 255.95687 
L 73.615304 256.332522 
L 73.239652 256.708174 
L 72.864 256.332522 
" style="fill:none;stroke:#000000;stroke-linecap:square;stroke-width:1.5;"/>
   </g>
   <g id="line2d_4">
    <path clip-path="url(#p630b15131d)" d="M 86.76313 255.95687 
L 87.138783 255.581217 
L 87.514435 255.95687 
L 87.138783 256.332522 
L 86.76313 255.95687 
" style="fill:none;stroke:#000000;stroke-linecap:square;stroke-width:1.5;"/>
   </g>
   <g id="line2d_5">
    <path clip-path="url(#p630b15131d)" d="M 84.88487 255.95687 
L 85.260522 255.581217 
L 85.636174 255.95687 
L 85.260522 256.332522 
L 84.88487 255.95687 
" style="fill:none;stroke:#000000;stroke-linecap:square;stroke-width:1.5;"/>
   </g>
   <g id="line2d_6">
    <path clip-path="url(#p630b15131d)" d="M 82.255304 255.95687 
L 82.630957 255.581217 
L 83.006609 255.95687 
L 82.630957 256.332522 
L 82.255304 255.95687 
" style="fill:none;stroke:#000000;stroke-linecap:square;stroke-width:1.5;"/>
   </g>
   <g id="line2d_7">
    <path clip-path="url(#p630b15131d)" d="M 73.615304 255.95687 
L 73.990957 255.581217 
L 74.742261 255.581217 
L 75.117913 255.95687 
L 74.742261 256.332522 
L 73.990957 256.332522 
L 73.615304 255.95687 
" style="fill:none;stroke:#000000;stroke-linecap:square;stroke-width:1.5;"/>
   </g>
   <g id="line2d_8">
    <path clip-path="url(#p630b15131d)" d="M 62.721391 255.581217 
L 63.097043 255.95687 
L 63.472696 255.95687 
L 63.848348 256.332522 
L 63.848348 257.083826 
L 63.097043 257.83513 
L 62.345739 257.83513 
L 61.970087 257.459478 
L 61.970087 256.332522 
L 62.721391 255.581217 
" style="fill:none;stroke:#000000;stroke-linecap:square;stroke-width:1.5;"/>
   </g>
   <g id="line2d_9">
    <path clip-path="url(#p630b15131d)" d="M 87.514435 255.581217 
L 87.890087 255.205565 
L 88.265739 255.581217 
L 87.890087 255.95687 
L 87.514435 255.581217 
" style="fill:none;stroke:#000000;stroke-linecap:square;stroke-width:1.5;"/>
   </g>
   <g id="line2d_10">
    <path clip-path="url(#p630b15131d)" d="M 112.307478 255.205565 
L 112.68313 254.829913 
L 113.058783 255.205565 
L 112.68313 255.581217 
L 112.307478 255.205565 
" style="fill:none;stroke:#000000;stroke-linecap:square;stroke-width:1.5;"/>
   </g>
   <g id="line2d_11">
    <path clip-path="url(#p630b15131d)" d="M 90.144 255.205565 
L 90.519652 254.829913 
L 90.895304 255.205565 
L 90.519652 255.581217 
L 90.144 255.205565 
" style="fill:none;stroke:#000000;stroke-linecap:square;stroke-width:1.5;"/>
   </g>
   <g id="line2d_12">
    <path clip-path="url(#p630b15131d)" d="M 114.185739 254.829913 
L 114.561391 254.454261 
L 115.688348 254.454261 
L 116.064 254.829913 
L 115.688348 255.205565 
L 114.561391 255.205565 
L 114.185739 254.829913 
" style="fill:none;stroke:#000000;stroke-linecap:square;stroke-width:1.5;"/>
   </g>
   <g id="line2d_13">
    <path clip-path="url(#p630b15131d)" d="M 91.646609 254.829913 
L 92.022261 254.454261 
L 92.397913 254.829913 
L 92.022261 255.205565 
L 91.646609 254.829913 
" style="fill:none;stroke:#000000;stroke-linecap:square;stroke-width:1.5;"/>
   </g>
   <g id="line2d_14">
    <path clip-path="url(#p630b15131d)" d="M 133.344 253.702957 
L 133.719652 253.327304 
L 134.095304 253.702957 
L 133.719652 254.078609 
L 133.344 253.702957 
" style="fill:none;stroke:#000000;stroke-linecap:square;stroke-width:1.5;"/>
   </g>
   <g id="line2d_15">
    <path clip-path="url(#p630b15131d)" d="M 134.095304 253.327304 
L 134.470957 252.951652 
L 134.846609 253.327304 
L 134.470957 253.702957 
L 134.095304 253.327304 
" style="fill:none;stroke:#000000;stroke-linecap:square;stroke-width:1.5;"/>
   </g>
   <g id="line2d_16">
    <path clip-path="url(#p630b15131d)" d="M 138.227478 252.951652 
L 138.60313 252.576 
L 138.978783 252.951652 
L 138.60313 253.327304 
L 138.227478 252.951652 
" style="fill:none;stroke:#000000;stroke-linecap:square;stroke-width:1.5;"/>
   </g>
   <g id="line2d_17">
    <path clip-path="url(#p630b15131d)" d="M 135.222261 252.951652 
L 135.597913 252.576 
L 135.973565 252.951652 
L 135.597913 253.327304 
L 135.222261 252.951652 
" style="fill:none;stroke:#000000;stroke-linecap:square;stroke-width:1.5;"/>
   </g>
   <g id="line2d_18">
    <path clip-path="url(#p630b15131d)" d="M 132.217043 252.200348 
L 132.592696 251.824696 
L 132.968348 252.200348 
L 132.592696 252.576 
L 132.217043 252.200348 
" style="fill:none;stroke:#000000;stroke-linecap:square;stroke-width:1.5;"/>
   </g>
   <g id="line2d_19">
    <path clip-path="url(#p630b15131d)" d="M 30.790957 251.449043 
L 31.166609 251.073391 
L 31.542261 251.449043 
L 31.542261 252.951652 
L 31.166609 253.327304 
L 30.790957 252.951652 
L 30.790957 251.449043 
" style="fill:none;stroke:#000000;stroke-linecap:square;stroke-width:1.5;"/>
   </g>
   <g id="line2d_20">
    <path clip-path="url(#p630b15131d)" d="M 107.424 250.322087 
L 107.424 252.200348 
L 108.175304 252.200348 
L 108.175304 250.322087 
L 107.424 250.322087 
" style="fill:none;stroke:#000000;stroke-linecap:square;stroke-width:1.5;"/>
   </g>
   <g id="line2d_21">
    <path clip-path="url(#p630b15131d)" d="M 169.406609 249.946435 
L 169.782261 249.570783 
L 170.157913 249.946435 
L 169.782261 250.322087 
L 169.406609 249.946435 
" style="fill:none;stroke:#000000;stroke-linecap:square;stroke-width:1.5;"/>
   </g>
   <g id="line2d_22">
    <path clip-path="url(#p630b15131d)" d="M 29.664 249.946435 
L 29.664 250.697739 
L 30.415304 250.697739 
L 30.415304 249.946435 
L 29.664 249.946435 
" style="fill:none;stroke:#000000;stroke-linecap:square;stroke-width:1.5;"/>
   </g>
   <g id="line2d_23">
    <path clip-path="url(#p630b15131d)" d="M 125.830957 248.443826 
L 126.206609 248.068174 
L 126.582261 248.443826 
L 126.206609 248.819478 
L 125.830957 248.443826 
" style="fill:none;stroke:#000000;stroke-linecap:square;stroke-width:1.5;"/>
   </g>
   <g id="line2d_24">
    <path clip-path="url(#p630b15131d)" d="M 107.799652 248.068174 
L 107.799652 248.819478 
L 108.550957 248.819478 
L 108.550957 248.068174 
L 107.799652 248.068174 
" style="fill:none;stroke:#000000;stroke-linecap:square;stroke-width:1.5;"/>
   </g>
   <g id="line2d_25">
    <path clip-path="url(#p630b15131d)" d="M 37.177043 248.068174 
L 37.552696 247.692522 
L 37.928348 248.068174 
L 37.552696 248.443826 
L 37.177043 248.068174 
" style="fill:none;stroke:#000000;stroke-linecap:square;stroke-width:1.5;"/>
   </g>
   <g id="line2d_26">
    <path clip-path="url(#p630b15131d)" d="M 167.152696 247.692522 
L 167.528348 247.31687 
L 167.904 247.692522 
L 167.528348 248.068174 
L 167.152696 247.692522 
" style="fill:none;stroke:#000000;stroke-linecap:square;stroke-width:1.5;"/>
   </g>
   <g id="line2d_27">
    <path clip-path="url(#p630b15131d)" d="M 143.110957 247.692522 
L 143.486609 247.31687 
L 143.862261 247.692522 
L 143.486609 248.068174 
L 143.110957 247.692522 
" style="fill:none;stroke:#000000;stroke-linecap:square;stroke-width:1.5;"/>
   </g>
   <g id="line2d_28">
    <path clip-path="url(#p630b15131d)" d="M 110.053565 247.692522 
L 110.429217 247.31687 
L 110.80487 247.692522 
L 110.429217 248.068174 
L 110.053565 247.692522 
" style="fill:none;stroke:#000000;stroke-linecap:square;stroke-width:1.5;"/>
   </g>
   <g id="line2d_29">
    <path clip-path="url(#p630b15131d)" d="M 36.801391 247.31687 
L 37.177043 246.941217 
L 37.552696 247.31687 
L 37.177043 247.692522 
L 36.801391 247.31687 
" style="fill:none;stroke:#000000;stroke-linecap:square;stroke-width:1.5;"/>
   </g>
   <g id="line2d_30">
    <path clip-path="url(#p630b15131d)" d="M 142.359652 246.189913 
L 142.735304 245.814261 
L 143.110957 246.189913 
L 142.735304 246.565565 
L 142.359652 246.189913 
" style="fill:none;stroke:#000000;stroke-linecap:square;stroke-width:1.5;"/>
   </g>
   <g id="line2d_31">
    <path clip-path="url(#p630b15131d)" d="M 167.152696 245.438609 
L 167.528348 245.062957 
L 167.904 245.438609 
L 167.528348 245.814261 
L 167.152696 245.438609 
" style="fill:none;stroke:#000000;stroke-linecap:square;stroke-width:1.5;"/>
   </g>
   <g id="line2d_32">
    <path clip-path="url(#p630b15131d)" d="M 110.053565 245.062957 
L 110.429217 244.687304 
L 110.80487 245.062957 
L 110.429217 245.438609 
L 110.053565 245.062957 
" style="fill:none;stroke:#000000;stroke-linecap:square;stroke-width:1.5;"/>
   </g>
   <g id="line2d_33">
    <path clip-path="url(#p630b15131d)" d="M 167.152696 243.560348 
L 167.528348 243.184696 
L 167.904 243.560348 
L 167.528348 243.936 
L 167.152696 243.560348 
" style="fill:none;stroke:#000000;stroke-linecap:square;stroke-width:1.5;"/>
   </g>
   <g id="line2d_34">
    <path clip-path="url(#p630b15131d)" d="M 28.912696 242.433391 
L 28.912696 243.184696 
L 29.664 243.184696 
L 29.664 242.433391 
L 28.912696 242.433391 
" style="fill:none;stroke:#000000;stroke-linecap:square;stroke-width:1.5;"/>
   </g>
   <g id="line2d_35">
    <path clip-path="url(#p630b15131d)" d="M 166.777043 241.682087 
L 167.152696 241.306435 
L 167.528348 241.682087 
L 167.152696 242.057739 
L 166.777043 241.682087 
" style="fill:none;stroke:#000000;stroke-linecap:square;stroke-width:1.5;"/>
   </g>
   <g id="line2d_36">
    <path clip-path="url(#p630b15131d)" d="M 109.302261 241.682087 
L 109.677913 241.306435 
L 110.053565 241.682087 
L 109.677913 242.057739 
L 109.302261 241.682087 
" style="fill:none;stroke:#000000;stroke-linecap:square;stroke-width:1.5;"/>
   </g>
   <g id="line2d_37">
    <path clip-path="url(#p630b15131d)" d="M 197.956174 239.803826 
L 197.580522 240.179478 
L 192.697043 240.179478 
L 192.697043 240.930783 
L 193.448348 240.930783 
L 193.824 241.306435 
L 195.702261 241.306435 
L 196.077913 241.682087 
L 197.580522 241.682087 
L 197.956174 242.057739 
L 198.707478 242.057739 
L 199.08313 242.433391 
L 200.585739 242.433391 
L 200.585739 242.057739 
L 201.337043 241.306435 
L 202.088348 241.306435 
L 202.088348 239.803826 
L 197.956174 239.803826 
" style="fill:none;stroke:#000000;stroke-linecap:square;stroke-width:1.5;"/>
   </g>
   <g id="line2d_38">
    <path clip-path="url(#p630b15131d)" d="M 28.161391 239.052522 
L 28.161391 240.55513 
L 28.912696 240.55513 
L 29.288348 240.179478 
L 29.288348 239.052522 
L 28.161391 239.052522 
" style="fill:none;stroke:#000000;stroke-linecap:square;stroke-width:1.5;"/>
   </g>
   <g id="line2d_39">
    <path clip-path="url(#p630b15131d)" d="M 53.330087 238.301217 
L 53.705739 237.925565 
L 54.081391 238.301217 
L 53.705739 238.67687 
L 53.330087 238.301217 
" style="fill:none;stroke:#000000;stroke-linecap:square;stroke-width:1.5;"/>
   </g>
   <g id="line2d_40">
    <path clip-path="url(#p630b15131d)" d="M 55.584 237.925565 
L 55.959652 237.549913 
L 56.335304 237.925565 
L 56.335304 238.67687 
L 56.710957 239.052522 
L 57.462261 239.052522 
L 57.837913 238.67687 
L 58.213565 239.052522 
L 58.213565 240.930783 
L 57.837913 241.306435 
L 57.462261 240.930783 
L 56.710957 240.930783 
L 56.710957 241.306435 
L 56.335304 241.682087 
L 55.584 241.682087 
L 55.208348 241.306435 
L 55.208348 240.930783 
L 54.457043 240.930783 
L 54.457043 241.682087 
L 54.081391 242.057739 
L 53.705739 241.682087 
L 53.705739 241.306435 
L 52.578783 241.306435 
L 52.20313 241.682087 
L 51.827478 241.682087 
L 51.827478 242.057739 
L 51.451826 242.433391 
L 51.076174 242.433391 
L 50.700522 242.057739 
L 50.700522 241.682087 
L 49.949217 241.682087 
L 49.949217 242.433391 
L 49.573565 242.809043 
L 49.197913 242.433391 
L 48.446609 242.433391 
L 47.695304 243.184696 
L 47.319652 242.809043 
L 45.065739 242.809043 
L 44.690087 243.184696 
L 44.314435 243.184696 
L 43.938783 243.560348 
L 43.56313 243.184696 
L 43.56313 242.809043 
L 42.811826 242.809043 
L 42.811826 243.560348 
L 42.436174 243.936 
L 42.060522 243.560348 
L 41.309217 243.560348 
L 41.309217 243.936 
L 40.933565 244.311652 
L 40.557913 244.311652 
L 40.182261 244.687304 
L 39.430957 244.687304 
L 39.055304 245.062957 
L 38.679652 244.687304 
L 38.679652 244.311652 
L 36.801391 244.311652 
L 36.425739 243.936 
L 37.552696 242.809043 
L 37.552696 241.682087 
L 37.177043 241.306435 
L 37.552696 240.930783 
L 37.552696 240.55513 
L 37.928348 240.179478 
L 38.304 240.55513 
L 39.055304 240.55513 
L 39.055304 239.803826 
L 39.430957 239.428174 
L 39.806609 239.803826 
L 39.806609 240.55513 
L 40.933565 240.55513 
L 41.309217 240.179478 
L 42.811826 240.179478 
L 43.187478 239.803826 
L 43.56313 240.179478 
L 44.690087 240.179478 
L 44.690087 239.803826 
L 45.441391 239.052522 
L 46.192696 239.052522 
L 46.568348 239.428174 
L 46.568348 240.179478 
L 47.695304 240.179478 
L 47.695304 239.052522 
L 47.319652 238.67687 
L 47.695304 238.301217 
L 49.573565 238.301217 
L 49.949217 238.67687 
L 49.573565 239.052522 
L 49.197913 239.052522 
L 49.197913 239.803826 
L 49.949217 239.803826 
L 49.949217 239.052522 
L 50.32487 238.67687 
L 52.20313 238.67687 
L 52.578783 238.301217 
L 53.330087 238.301217 
L 53.705739 238.67687 
L 53.705739 239.428174 
L 54.457043 239.428174 
L 54.457043 239.052522 
L 54.832696 238.67687 
L 55.584 238.67687 
L 55.584 237.925565 
" style="fill:none;stroke:#000000;stroke-linecap:square;stroke-width:1.5;"/>
   </g>
   <g id="line2d_41">
    <path clip-path="url(#p630b15131d)" d="M 127.333565 237.174261 
L 128.08487 237.925565 
L 128.08487 238.301217 
L 127.709217 238.67687 
L 127.709217 240.179478 
L 127.333565 240.55513 
L 126.957913 240.55513 
L 126.957913 241.306435 
L 127.333565 241.682087 
L 127.709217 241.682087 
L 128.08487 242.057739 
L 127.709217 242.433391 
L 127.709217 243.936 
L 128.08487 244.311652 
L 128.08487 245.438609 
L 127.709217 245.814261 
L 127.333565 245.814261 
L 127.333565 247.692522 
L 126.957913 248.068174 
L 126.582261 248.068174 
L 126.206609 247.692522 
L 126.206609 247.31687 
L 125.830957 246.941217 
L 125.830957 246.565565 
L 126.206609 246.189913 
L 126.206609 245.438609 
L 125.830957 245.438609 
L 125.079652 244.687304 
L 125.079652 243.184696 
L 124.704 242.809043 
L 124.704 242.433391 
L 125.079652 242.057739 
L 125.079652 240.930783 
L 124.704 240.55513 
L 125.079652 240.179478 
L 125.455304 240.179478 
L 126.206609 239.428174 
L 126.582261 239.428174 
L 126.582261 238.67687 
L 126.206609 238.301217 
L 127.333565 237.174261 
" style="fill:none;stroke:#000000;stroke-linecap:square;stroke-width:1.5;"/>
   </g>
   <g id="line2d_42">
    <path clip-path="url(#p630b15131d)" d="M 32.669217 237.549913 
L 33.04487 237.174261 
L 33.796174 237.174261 
L 34.547478 237.925565 
L 34.547478 238.301217 
L 34.171826 238.67687 
L 33.796174 238.67687 
L 33.420522 238.301217 
L 33.04487 238.301217 
L 32.669217 237.925565 
L 32.669217 237.549913 
" style="fill:none;stroke:#000000;stroke-linecap:square;stroke-width:1.5;"/>
   </g>
   <g id="line2d_43">
    <path clip-path="url(#p630b15131d)" d="M 60.091826 236.422957 
L 60.467478 236.047304 
L 60.84313 236.422957 
L 60.467478 236.798609 
L 60.091826 236.422957 
" style="fill:none;stroke:#000000;stroke-linecap:square;stroke-width:1.5;"/>
   </g>
   <g id="line2d_44">
    <path clip-path="url(#p630b15131d)" d="M 60.84313 235.671652 
L 61.218783 235.296 
L 61.594435 235.296 
L 61.970087 235.671652 
L 61.594435 236.047304 
L 61.218783 236.047304 
L 60.84313 235.671652 
" style="fill:none;stroke:#000000;stroke-linecap:square;stroke-width:1.5;"/>
   </g>
   <g id="line2d_45">
    <path clip-path="url(#p630b15131d)" d="M 166.401391 235.296 
L 166.777043 234.920348 
L 167.152696 235.296 
L 166.777043 235.671652 
L 166.401391 235.296 
" style="fill:none;stroke:#000000;stroke-linecap:square;stroke-width:1.5;"/>
   </g>
   <g id="line2d_46">
    <path clip-path="url(#p630b15131d)" d="M 106.297043 233.042087 
L 106.672696 232.666435 
L 107.048348 233.042087 
L 107.048348 233.417739 
L 106.672696 233.793391 
L 106.297043 233.417739 
L 106.297043 233.042087 
" style="fill:none;stroke:#000000;stroke-linecap:square;stroke-width:1.5;"/>
   </g>
   <g id="line2d_47">
    <path clip-path="url(#p630b15131d)" d="M 107.799652 232.666435 
L 108.175304 232.290783 
L 108.550957 232.666435 
L 108.175304 233.042087 
L 107.799652 232.666435 
" style="fill:none;stroke:#000000;stroke-linecap:square;stroke-width:1.5;"/>
   </g>
   <g id="line2d_48">
    <path clip-path="url(#p630b15131d)" d="M 28.537043 232.290783 
L 28.537043 233.042087 
L 29.288348 233.042087 
L 29.288348 232.290783 
L 28.537043 232.290783 
" style="fill:none;stroke:#000000;stroke-linecap:square;stroke-width:1.5;"/>
   </g>
   <g id="line2d_49">
    <path clip-path="url(#p630b15131d)" d="M 107.424 231.91513 
L 107.799652 231.539478 
L 108.175304 231.91513 
L 108.175304 232.290783 
L 107.799652 232.666435 
L 107.048348 232.666435 
L 106.672696 232.290783 
L 107.048348 231.91513 
L 107.424 231.91513 
" style="fill:none;stroke:#000000;stroke-linecap:square;stroke-width:1.5;"/>
   </g>
   <g id="line2d_50">
    <path clip-path="url(#p630b15131d)" d="M 24.40487 171.059478 
L 24.40487 172.937739 
L 24.029217 173.313391 
L 24.029217 175.942957 
L 24.40487 176.318609 
L 25.531826 176.318609 
L 25.531826 173.689043 
L 25.156174 173.313391 
L 25.156174 171.059478 
L 24.40487 171.059478 
" style="fill:none;stroke:#000000;stroke-linecap:square;stroke-width:1.5;"/>
   </g>
   <g id="line2d_51">
    <path clip-path="url(#p630b15131d)" d="M 194.950957 110.203826 
L 194.950957 111.330783 
L 195.702261 111.330783 
L 195.702261 110.203826 
L 194.950957 110.203826 
" style="fill:none;stroke:#000000;stroke-linecap:square;stroke-width:1.5;"/>
   </g>
   <g id="line2d_52">
    <path clip-path="url(#p630b15131d)" d="M 195.326609 107.949913 
L 195.326609 109.07687 
L 196.077913 109.07687 
L 196.077913 107.949913 
L 195.326609 107.949913 
" style="fill:none;stroke:#000000;stroke-linecap:square;stroke-width:1.5;"/>
   </g>
   <g id="line2d_53">
    <path clip-path="url(#p630b15131d)" d="M 195.702261 106.447304 
L 195.702261 107.198609 
L 196.453565 107.198609 
L 196.453565 106.447304 
L 195.702261 106.447304 
" style="fill:none;stroke:#000000;stroke-linecap:square;stroke-width:1.5;"/>
   </g>
   <g id="line2d_54">
    <path clip-path="url(#p630b15131d)" d="M 196.077913 80.902957 
L 196.077913 82.781217 
L 196.453565 83.15687 
L 197.20487 83.15687 
L 197.20487 82.405565 
L 196.829217 82.029913 
L 197.20487 81.654261 
L 197.20487 80.902957 
L 196.077913 80.902957 
" style="fill:none;stroke:#000000;stroke-linecap:square;stroke-width:1.5;"/>
   </g>
   <g id="line2d_55">
    <path clip-path="url(#p630b15131d)" d="M 55.208348 77.897739 
L 55.584 77.522087 
L 55.959652 77.897739 
L 55.959652 78.273391 
L 56.335304 78.649043 
L 56.335304 79.024696 
L 55.584 79.776 
L 54.832696 79.776 
L 54.457043 79.400348 
L 54.081391 79.400348 
L 53.705739 79.024696 
L 53.705739 78.649043 
L 54.081391 78.273391 
L 55.208348 78.273391 
L 55.208348 77.897739 
" style="fill:none;stroke:#000000;stroke-linecap:square;stroke-width:1.5;"/>
   </g>
   <g id="line2d_56">
    <path clip-path="url(#p630b15131d)" d="M 196.829217 76.770783 
L 196.829217 78.649043 
L 197.956174 78.649043 
L 197.956174 78.273391 
L 198.331826 77.897739 
L 198.331826 76.770783 
L 196.829217 76.770783 
" style="fill:none;stroke:#000000;stroke-linecap:square;stroke-width:1.5;"/>
   </g>
   <g id="line2d_57">
    <path clip-path="url(#p630b15131d)" d="M 42.436174 66.628174 
L 42.811826 66.252522 
L 44.690087 66.252522 
L 45.065739 66.628174 
L 45.065739 67.003826 
L 43.938783 68.130783 
L 43.56313 67.75513 
L 43.56313 67.379478 
L 42.811826 67.379478 
L 42.436174 67.003826 
L 42.436174 66.628174 
" style="fill:none;stroke:#000000;stroke-linecap:square;stroke-width:1.5;"/>
   </g>
   <g id="line2d_58">
    <path clip-path="url(#p630b15131d)" d="M 54.832696 59.11513 
L 55.208348 58.739478 
L 55.584 58.739478 
L 55.959652 59.11513 
L 55.584 59.490783 
L 55.208348 59.490783 
L 54.832696 59.11513 
" style="fill:none;stroke:#000000;stroke-linecap:square;stroke-width:1.5;"/>
   </g>
   <g id="line2d_59">
    <path clip-path="url(#p630b15131d)" d="M 195.702261 58.739478 
L 195.702261 59.490783 
L 196.077913 59.866435 
L 196.829217 59.866435 
L 196.829217 59.11513 
L 196.453565 58.739478 
L 195.702261 58.739478 
" style="fill:none;stroke:#000000;stroke-linecap:square;stroke-width:1.5;"/>
   </g>
   <g id="line2d_60">
    <path clip-path="url(#p630b15131d)" d="M 55.959652 57.23687 
L 56.335304 56.861217 
L 56.710957 56.861217 
L 57.086609 57.23687 
L 56.710957 57.612522 
L 56.710957 58.363826 
L 55.959652 59.11513 
L 55.584 58.739478 
L 55.584 58.363826 
L 55.959652 57.988174 
L 55.959652 57.23687 
" style="fill:none;stroke:#000000;stroke-linecap:square;stroke-width:1.5;"/>
   </g>
   <g id="line2d_61">
    <path clip-path="url(#p630b15131d)" d="M 83.757913 51.977739 
L 84.133565 51.602087 
L 84.88487 51.602087 
L 85.260522 51.977739 
L 85.260522 52.729043 
L 84.88487 53.104696 
L 83.757913 53.104696 
L 83.382261 52.729043 
L 83.757913 52.353391 
L 83.757913 51.977739 
" style="fill:none;stroke:#000000;stroke-linecap:square;stroke-width:1.5;"/>
   </g>
   <g id="line2d_62">
    <path clip-path="url(#p630b15131d)" d="M 195.326609 51.602087 
L 194.950957 51.977739 
L 194.950957 52.729043 
L 194.575304 53.104696 
L 194.575304 53.856 
L 193.824 54.607304 
L 193.824 55.358609 
L 194.199652 55.734261 
L 194.199652 56.485565 
L 194.575304 56.861217 
L 194.575304 57.23687 
L 195.326609 57.23687 
L 195.326609 56.109913 
L 194.950957 55.734261 
L 194.950957 54.607304 
L 195.326609 54.231652 
L 196.077913 54.231652 
L 196.077913 53.480348 
L 195.702261 53.104696 
L 196.077913 52.729043 
L 196.077913 51.602087 
L 195.326609 51.602087 
" style="fill:none;stroke:#000000;stroke-linecap:square;stroke-width:1.5;"/>
   </g>
   <g id="line2d_63">
    <path clip-path="url(#p630b15131d)" d="M 94.651826 50.850783 
L 95.027478 50.47513 
L 95.40313 50.850783 
L 95.027478 51.226435 
L 94.651826 50.850783 
" style="fill:none;stroke:#000000;stroke-linecap:square;stroke-width:1.5;"/>
   </g>
   <g id="line2d_64">
    <path clip-path="url(#p630b15131d)" d="M 60.84313 47.845565 
L 61.218783 47.469913 
L 61.594435 47.845565 
L 62.345739 47.845565 
L 62.721391 47.469913 
L 63.472696 47.469913 
L 63.848348 47.845565 
L 61.970087 49.723826 
L 60.84313 49.723826 
L 60.467478 50.099478 
L 60.091826 50.099478 
L 59.716174 49.723826 
L 59.716174 49.348174 
L 60.091826 48.972522 
L 60.467478 48.972522 
L 60.84313 48.59687 
L 60.84313 47.845565 
" style="fill:none;stroke:#000000;stroke-linecap:square;stroke-width:1.5;"/>
   </g>
   <g id="line2d_65">
    <path clip-path="url(#p630b15131d)" d="M 45.065739 44.840348 
L 45.441391 44.464696 
L 45.817043 44.840348 
L 45.441391 45.216 
L 45.065739 44.840348 
" style="fill:none;stroke:#000000;stroke-linecap:square;stroke-width:1.5;"/>
   </g>
   <g id="line2d_66">
    <path clip-path="url(#p630b15131d)" d="M 16.516174 42.962087 
L 16.516174 43.713391 
L 17.64313 43.713391 
L 17.64313 42.962087 
L 16.516174 42.962087 
" style="fill:none;stroke:#000000;stroke-linecap:square;stroke-width:1.5;"/>
   </g>
   <g id="line2d_67">
    <path clip-path="url(#p630b15131d)" d="M 60.467478 40.708174 
L 60.84313 40.332522 
L 61.218783 40.708174 
L 61.594435 40.708174 
L 62.345739 41.459478 
L 61.970087 41.83513 
L 61.594435 41.83513 
L 61.218783 41.459478 
L 60.84313 41.459478 
L 60.467478 41.083826 
L 60.467478 40.708174 
" style="fill:none;stroke:#000000;stroke-linecap:square;stroke-width:1.5;"/>
   </g>
   <g id="line2d_68">
    <path clip-path="url(#p630b15131d)" d="M 72.112696 40.332522 
L 72.488348 39.95687 
L 73.615304 39.95687 
L 73.990957 40.332522 
L 73.615304 40.708174 
L 72.488348 40.708174 
L 72.112696 40.332522 
" style="fill:none;stroke:#000000;stroke-linecap:square;stroke-width:1.5;"/>
   </g>
   <g id="line2d_69">
    <path clip-path="url(#p630b15131d)" d="M 58.96487 39.95687 
L 60.467478 39.95687 
L 60.84313 40.332522 
L 60.467478 40.708174 
L 59.340522 40.708174 
L 58.96487 41.083826 
L 58.589217 41.083826 
L 58.213565 40.708174 
L 58.96487 39.95687 
" style="fill:none;stroke:#000000;stroke-linecap:square;stroke-width:1.5;"/>
   </g>
   <g id="line2d_70">
    <path clip-path="url(#p630b15131d)" d="M 36.801391 35.824696 
L 37.177043 35.449043 
L 38.679652 35.449043 
L 39.430957 36.200348 
L 39.055304 36.576 
L 37.928348 36.576 
L 37.552696 36.200348 
L 37.177043 36.200348 
L 36.801391 35.824696 
" style="fill:none;stroke:#000000;stroke-linecap:square;stroke-width:1.5;"/>
   </g>
   <g id="line2d_71">
    <path clip-path="url(#p630b15131d)" d="M 36.050087 34.322087 
L 36.425739 34.322087 
L 37.177043 35.073391 
L 36.801391 35.449043 
L 35.674435 35.449043 
L 35.298783 35.073391 
L 36.050087 34.322087 
" style="fill:none;stroke:#000000;stroke-linecap:square;stroke-width:1.5;"/>
   </g>
   <g id="line2d_72">
    <path clip-path="url(#p630b15131d)" d="M 191.945739 32.443826 
L 192.321391 32.068174 
L 192.697043 32.443826 
L 192.697043 33.19513 
L 192.321391 33.570783 
L 191.945739 33.19513 
L 191.945739 32.443826 
" style="fill:none;stroke:#000000;stroke-linecap:square;stroke-width:1.5;"/>
   </g>
   <g id="line2d_73">
    <path clip-path="url(#p630b15131d)" d="M 26.658783 26.809043 
L 26.658783 27.184696 
L 26.28313 27.560348 
L 26.28313 28.311652 
L 27.034435 28.311652 
L 27.410087 27.936 
L 27.785739 27.936 
L 27.785739 27.184696 
L 27.410087 26.809043 
L 26.658783 26.809043 
" style="fill:none;stroke:#000000;stroke-linecap:square;stroke-width:1.5;"/>
   </g>
   <g id="line2d_74">
    <path clip-path="url(#p630b15131d)" d="M 31.542261 25.682087 
L 31.542261 26.433391 
L 32.293565 26.433391 
L 32.293565 25.682087 
L 31.542261 25.682087 
" style="fill:none;stroke:#000000;stroke-linecap:square;stroke-width:1.5;"/>
   </g>
   <g id="line2d_75">
    <path clip-path="url(#p630b15131d)" d="M 191.570087 20.798609 
L 191.194435 21.174261 
L 191.194435 23.428174 
L 190.818783 23.803826 
L 190.818783 25.306435 
L 191.194435 25.682087 
L 190.818783 26.057739 
L 190.818783 30.565565 
L 191.194435 30.941217 
L 191.194435 34.697739 
L 191.570087 35.073391 
L 191.570087 36.200348 
L 191.945739 36.200348 
L 192.321391 36.576 
L 192.321391 37.327304 
L 193.072696 37.327304 
L 193.072696 33.570783 
L 193.448348 33.19513 
L 193.448348 29.438609 
L 193.824 29.062957 
L 193.824 25.306435 
L 194.199652 24.930783 
L 194.199652 23.428174 
L 193.824 23.428174 
L 193.448348 23.052522 
L 192.697043 23.052522 
L 192.321391 22.67687 
L 192.321391 20.798609 
L 191.570087 20.798609 
" style="fill:none;stroke:#000000;stroke-linecap:square;stroke-width:1.5;"/>
   </g>
   <g id="line2d_76">
    <path clip-path="url(#p630b15131d)" d="M 183.305739 19.296 
L 182.930087 19.671652 
L 178.422261 19.671652 
L 178.046609 20.047304 
L 172.787478 20.047304 
L 172.411826 20.422957 
L 167.528348 20.422957 
L 167.152696 20.798609 
L 161.517913 20.798609 
L 161.142261 21.174261 
L 157.385739 21.174261 
L 157.010087 21.549913 
L 154.00487 21.549913 
L 153.629217 21.925565 
L 147.24313 21.925565 
L 146.867478 22.301217 
L 140.857043 22.301217 
L 140.481391 22.67687 
L 135.597913 22.67687 
L 135.222261 23.052522 
L 129.211826 23.052522 
L 128.836174 23.428174 
L 125.455304 23.428174 
L 125.079652 23.803826 
L 119.44487 23.803826 
L 119.069217 24.179478 
L 113.810087 24.179478 
L 113.434435 24.55513 
L 113.058783 24.179478 
L 112.307478 24.179478 
L 111.931826 24.55513 
L 110.053565 24.55513 
L 109.677913 24.930783 
L 106.672696 24.930783 
L 106.672696 25.306435 
L 106.297043 25.682087 
L 105.921391 25.306435 
L 97.657043 25.306435 
L 97.281391 25.682087 
L 91.270957 25.682087 
L 90.895304 26.057739 
L 86.387478 26.057739 
L 86.011826 26.433391 
L 80.001391 26.433391 
L 79.625739 26.809043 
L 75.493565 26.809043 
L 75.117913 27.184696 
L 69.107478 27.184696 
L 68.731826 27.560348 
L 64.224 27.560348 
L 63.848348 27.936 
L 56.710957 27.936 
L 56.335304 28.311652 
L 52.20313 28.311652 
L 51.827478 28.687304 
L 49.197913 28.687304 
L 48.822261 29.062957 
L 40.933565 29.062957 
L 40.182261 29.814261 
L 38.679652 29.814261 
L 38.304 29.438609 
L 37.552696 29.438609 
L 37.177043 29.814261 
L 36.425739 29.814261 
L 36.050087 29.438609 
L 35.298783 29.438609 
L 34.92313 29.814261 
L 34.547478 29.438609 
L 30.415304 29.438609 
L 30.039652 29.814261 
L 24.029217 29.814261 
L 23.653565 30.189913 
L 22.902261 30.189913 
L 22.526609 29.814261 
L 21.399652 29.814261 
L 20.648348 30.565565 
L 18.770087 30.565565 
L 18.770087 30.941217 
L 18.394435 31.31687 
L 17.64313 31.31687 
L 17.267478 31.692522 
L 17.267478 32.443826 
L 17.64313 32.819478 
L 17.64313 33.570783 
L 18.018783 33.946435 
L 17.64313 34.322087 
L 17.64313 35.449043 
L 18.018783 35.824696 
L 17.64313 36.200348 
L 17.64313 36.576 
L 17.267478 36.951652 
L 16.891826 36.951652 
L 16.891826 37.327304 
L 16.516174 37.702957 
L 16.516174 38.829913 
L 17.267478 38.829913 
L 17.64313 38.454261 
L 18.018783 38.454261 
L 18.018783 38.078609 
L 18.394435 37.702957 
L 18.770087 38.078609 
L 18.770087 39.95687 
L 18.394435 40.332522 
L 18.394435 43.713391 
L 18.770087 43.713391 
L 19.145739 44.089043 
L 19.145739 44.464696 
L 18.770087 44.840348 
L 18.770087 47.469913 
L 19.145739 47.845565 
L 18.770087 48.221217 
L 18.770087 50.47513 
L 19.145739 50.850783 
L 19.145739 51.226435 
L 18.770087 51.602087 
L 18.770087 52.353391 
L 19.145739 52.729043 
L 19.145739 55.358609 
L 19.521391 55.734261 
L 19.521391 63.247304 
L 19.897043 63.622957 
L 19.897043 67.003826 
L 20.272696 67.379478 
L 20.272696 72.638609 
L 20.648348 73.014261 
L 20.648348 77.522087 
L 21.024 77.897739 
L 21.024 83.908174 
L 21.399652 84.283826 
L 21.399652 89.918609 
L 21.775304 90.294261 
L 21.775304 95.177739 
L 22.150957 95.553391 
L 22.150957 101.188174 
L 22.526609 101.563826 
L 22.526609 108.325565 
L 22.902261 108.701217 
L 22.902261 109.452522 
L 35.298783 109.452522 
L 35.298783 91.045565 
L 35.674435 90.669913 
L 36.050087 91.045565 
L 36.050087 109.452522 
L 54.457043 109.452522 
L 54.832696 109.828174 
L 54.457043 110.203826 
L 36.050087 110.203826 
L 36.050087 128.610783 
L 35.674435 128.986435 
L 35.298783 128.610783 
L 35.298783 110.203826 
L 22.902261 110.203826 
L 22.902261 122.976 
L 23.277913 123.351652 
L 23.277913 125.605565 
L 23.653565 125.981217 
L 23.653565 128.23513 
L 24.029217 128.610783 
L 24.029217 134.245565 
L 24.40487 134.621217 
L 24.40487 140.631652 
L 24.780522 141.007304 
L 24.780522 145.890783 
L 25.156174 146.266435 
L 25.156174 150.022957 
L 25.531826 150.398609 
L 25.156174 150.774261 
L 25.156174 151.525565 
L 25.531826 151.901217 
L 25.531826 156.033391 
L 25.907478 156.409043 
L 25.907478 162.79513 
L 26.28313 163.170783 
L 26.28313 169.181217 
L 26.658783 169.55687 
L 26.658783 176.694261 
L 27.034435 177.069913 
L 27.034435 180.07513 
L 27.410087 180.450783 
L 27.410087 187.963826 
L 27.785739 188.339478 
L 27.785739 191.344696 
L 28.161391 191.720348 
L 28.161391 198.106435 
L 28.537043 198.482087 
L 28.537043 204.868174 
L 28.912696 205.243826 
L 28.537043 205.619478 
L 28.537043 206.746435 
L 28.912696 207.122087 
L 28.912696 212.75687 
L 29.288348 213.132522 
L 29.288348 218.391652 
L 29.664 218.767304 
L 29.664 223.650783 
L 30.039652 224.026435 
L 30.039652 228.534261 
L 30.415304 228.909913 
L 30.415304 235.296 
L 30.790957 235.671652 
L 30.790957 241.682087 
L 31.166609 242.057739 
L 30.790957 242.433391 
L 30.790957 243.184696 
L 31.166609 243.560348 
L 30.790957 243.936 
L 30.790957 244.687304 
L 31.166609 245.062957 
L 31.166609 251.073391 
L 30.790957 251.449043 
L 29.288348 251.449043 
L 29.288348 252.200348 
L 29.664 252.576 
L 29.664 253.327304 
L 29.288348 253.702957 
L 29.288348 254.829913 
L 29.664 254.829913 
L 30.039652 255.205565 
L 29.664 255.581217 
L 28.912696 255.581217 
L 28.912696 256.332522 
L 30.039652 256.332522 
L 30.415304 255.95687 
L 30.790957 255.95687 
L 30.790957 255.205565 
L 31.166609 254.829913 
L 31.542261 255.205565 
L 31.917913 255.205565 
L 32.293565 255.581217 
L 32.293565 256.708174 
L 36.425739 256.708174 
L 36.425739 251.824696 
L 36.801391 251.449043 
L 37.177043 251.449043 
L 37.177043 250.322087 
L 37.552696 249.946435 
L 38.304 249.946435 
L 38.679652 249.570783 
L 39.055304 249.570783 
L 39.430957 249.19513 
L 39.806609 249.570783 
L 39.806609 249.946435 
L 40.557913 249.946435 
L 40.557913 249.19513 
L 40.933565 248.819478 
L 41.309217 249.19513 
L 41.309217 249.570783 
L 41.68487 249.946435 
L 41.68487 250.322087 
L 42.436174 250.322087 
L 42.811826 249.946435 
L 43.56313 249.946435 
L 43.938783 249.570783 
L 44.690087 250.322087 
L 44.690087 250.697739 
L 45.441391 250.697739 
L 45.817043 250.322087 
L 46.568348 250.322087 
L 46.944 249.946435 
L 47.319652 250.322087 
L 49.949217 250.322087 
L 50.32487 250.697739 
L 51.076174 250.697739 
L 51.451826 250.322087 
L 51.827478 250.697739 
L 52.954435 250.697739 
L 53.330087 250.322087 
L 53.705739 250.697739 
L 58.96487 250.697739 
L 59.340522 251.073391 
L 59.716174 251.073391 
L 60.091826 251.449043 
L 60.091826 252.576 
L 61.218783 252.576 
L 61.594435 252.951652 
L 61.218783 253.327304 
L 60.84313 253.327304 
L 60.84313 254.078609 
L 60.467478 254.454261 
L 59.340522 254.454261 
L 58.96487 254.078609 
L 58.96487 253.702957 
L 58.589217 253.327304 
L 57.837913 253.327304 
L 57.837913 255.205565 
L 58.213565 255.205565 
L 58.589217 255.581217 
L 58.213565 255.95687 
L 57.086609 255.95687 
L 57.086609 256.708174 
L 56.710957 257.083826 
L 56.710957 257.459478 
L 56.335304 257.83513 
L 55.959652 257.459478 
L 55.959652 257.083826 
L 54.832696 257.083826 
L 54.832696 258.586435 
L 54.457043 258.962087 
L 54.081391 258.962087 
L 54.081391 259.713391 
L 54.832696 259.713391 
L 55.208348 259.337739 
L 55.584 259.713391 
L 55.584 260.089043 
L 56.710957 260.089043 
L 57.086609 259.713391 
L 60.091826 259.713391 
L 60.467478 259.337739 
L 60.84313 259.337739 
L 60.84313 258.586435 
L 61.218783 258.210783 
L 61.594435 258.210783 
L 61.970087 258.586435 
L 63.097043 258.586435 
L 63.472696 258.962087 
L 63.472696 259.713391 
L 65.726609 259.713391 
L 66.102261 259.337739 
L 71.737043 259.337739 
L 72.112696 258.962087 
L 78.498783 258.962087 
L 78.874435 258.586435 
L 81.879652 258.586435 
L 82.255304 258.210783 
L 87.890087 258.210783 
L 88.265739 257.83513 
L 90.895304 257.83513 
L 91.270957 257.459478 
L 93.52487 257.459478 
L 93.52487 257.083826 
L 93.900522 256.708174 
L 94.651826 256.708174 
L 95.027478 257.083826 
L 95.027478 257.459478 
L 96.154435 257.459478 
L 96.530087 257.083826 
L 98.032696 257.083826 
L 98.032696 256.332522 
L 97.657043 255.95687 
L 97.281391 255.95687 
L 96.530087 255.205565 
L 95.40313 255.205565 
L 95.027478 255.581217 
L 94.651826 255.205565 
L 93.900522 255.205565 
L 93.52487 254.829913 
L 93.900522 254.454261 
L 94.276174 254.454261 
L 94.651826 254.078609 
L 94.651826 253.327304 
L 94.276174 252.951652 
L 94.651826 252.576 
L 94.651826 251.073391 
L 94.276174 250.697739 
L 94.276174 250.322087 
L 94.651826 249.946435 
L 95.027478 249.946435 
L 95.40313 249.570783 
L 95.778783 249.570783 
L 95.778783 249.19513 
L 96.154435 248.819478 
L 96.530087 248.819478 
L 96.905739 248.443826 
L 97.281391 248.819478 
L 98.408348 248.819478 
L 98.784 248.443826 
L 99.910957 248.443826 
L 100.286609 248.819478 
L 100.286609 249.19513 
L 101.037913 249.19513 
L 101.789217 248.443826 
L 102.540522 248.443826 
L 102.916174 248.819478 
L 102.916174 249.570783 
L 103.667478 249.570783 
L 103.667478 248.819478 
L 104.04313 248.443826 
L 104.04313 247.31687 
L 103.667478 246.941217 
L 103.291826 246.941217 
L 102.16487 245.814261 
L 101.413565 245.814261 
L 101.037913 245.438609 
L 101.037913 245.062957 
L 100.286609 245.062957 
L 99.910957 244.687304 
L 99.910957 242.809043 
L 99.535304 242.809043 
L 98.784 242.057739 
L 98.784 241.682087 
L 98.032696 241.682087 
L 97.281391 240.930783 
L 97.281391 239.052522 
L 97.657043 238.67687 
L 98.784 238.67687 
L 98.784 238.301217 
L 99.159652 237.925565 
L 99.535304 237.925565 
L 99.910957 237.549913 
L 100.286609 237.549913 
L 100.662261 237.174261 
L 101.789217 237.174261 
L 102.16487 236.798609 
L 104.04313 236.798609 
L 105.545739 238.301217 
L 105.545739 238.67687 
L 105.921391 238.67687 
L 106.297043 239.052522 
L 106.672696 239.052522 
L 107.048348 239.428174 
L 107.048348 240.55513 
L 107.799652 240.55513 
L 108.175304 240.930783 
L 108.175304 242.057739 
L 108.926609 242.057739 
L 109.302261 241.682087 
L 109.677913 242.057739 
L 109.677913 242.809043 
L 110.053565 243.184696 
L 110.053565 243.560348 
L 109.677913 243.936 
L 109.302261 243.936 
L 109.302261 245.438609 
L 110.053565 245.438609 
L 110.429217 245.814261 
L 110.053565 246.189913 
L 108.926609 246.189913 
L 108.926609 246.941217 
L 109.302261 247.31687 
L 109.302261 249.19513 
L 109.677913 249.570783 
L 110.053565 249.570783 
L 110.429217 249.946435 
L 110.429217 250.697739 
L 110.80487 251.073391 
L 110.80487 251.449043 
L 110.429217 251.824696 
L 110.053565 251.449043 
L 109.302261 251.449043 
L 109.302261 252.200348 
L 110.053565 252.200348 
L 110.429217 252.576 
L 110.429217 252.951652 
L 111.556174 254.078609 
L 111.556174 254.829913 
L 111.180522 255.205565 
L 110.429217 255.205565 
L 110.429217 255.95687 
L 111.180522 255.95687 
L 111.556174 256.332522 
L 113.058783 256.332522 
L 113.434435 255.95687 
L 117.942261 255.95687 
L 118.317913 255.581217 
L 119.44487 255.581217 
L 119.820522 255.205565 
L 120.571826 255.205565 
L 120.571826 254.829913 
L 120.947478 254.454261 
L 121.32313 254.454261 
L 121.698783 254.078609 
L 122.074435 254.078609 
L 122.074435 253.702957 
L 122.450087 253.327304 
L 124.704 253.327304 
L 125.079652 252.951652 
L 125.455304 252.951652 
L 125.455304 251.824696 
L 126.206609 251.073391 
L 126.206609 249.946435 
L 126.582261 249.570783 
L 126.582261 249.19513 
L 126.957913 248.819478 
L 128.08487 249.946435 
L 128.08487 251.449043 
L 128.460522 251.824696 
L 128.08487 252.200348 
L 127.709217 252.200348 
L 127.709217 252.951652 
L 127.333565 253.327304 
L 127.333565 253.702957 
L 126.957913 254.078609 
L 125.455304 254.078609 
L 125.079652 254.454261 
L 124.704 254.454261 
L 124.704 255.205565 
L 125.830957 255.205565 
L 126.206609 254.829913 
L 126.957913 254.829913 
L 127.333565 254.454261 
L 127.709217 254.829913 
L 127.709217 255.205565 
L 128.836174 255.205565 
L 129.211826 254.829913 
L 134.470957 254.829913 
L 134.846609 254.454261 
L 136.349217 254.454261 
L 136.349217 253.702957 
L 135.973565 253.327304 
L 136.349217 252.951652 
L 137.851826 252.951652 
L 138.227478 253.327304 
L 137.851826 253.702957 
L 137.100522 253.702957 
L 137.100522 254.454261 
L 139.354435 254.454261 
L 139.354435 253.327304 
L 139.730087 252.951652 
L 140.105739 252.951652 
L 140.481391 252.576 
L 141.984 252.576 
L 142.359652 252.200348 
L 142.735304 252.200348 
L 142.735304 250.697739 
L 143.110957 250.322087 
L 143.486609 250.322087 
L 143.486609 248.819478 
L 143.862261 248.443826 
L 144.989217 248.443826 
L 144.989217 247.692522 
L 144.237913 247.692522 
L 143.862261 247.31687 
L 143.862261 246.189913 
L 144.237913 245.814261 
L 144.613565 246.189913 
L 144.613565 246.565565 
L 145.36487 246.565565 
L 145.36487 245.814261 
L 144.989217 245.438609 
L 144.989217 245.062957 
L 144.613565 245.062957 
L 144.237913 244.687304 
L 144.237913 243.560348 
L 143.486609 243.560348 
L 142.735304 242.809043 
L 142.359652 242.809043 
L 141.984 242.433391 
L 142.359652 242.057739 
L 142.735304 242.057739 
L 142.735304 241.306435 
L 142.359652 240.930783 
L 142.359652 239.803826 
L 143.110957 239.052522 
L 143.110957 237.925565 
L 142.359652 237.925565 
L 142.359652 238.301217 
L 141.984 238.67687 
L 141.608348 238.301217 
L 141.608348 234.920348 
L 141.232696 234.544696 
L 140.857043 234.544696 
L 140.481391 234.169043 
L 139.730087 234.169043 
L 138.978783 233.417739 
L 139.730087 232.666435 
L 140.857043 232.666435 
L 141.232696 232.290783 
L 148.745739 232.290783 
L 149.121391 231.91513 
L 153.629217 231.91513 
L 154.00487 231.539478 
L 154.380522 231.91513 
L 155.507478 231.91513 
L 156.258783 232.666435 
L 156.258783 233.042087 
L 155.88313 233.417739 
L 155.507478 233.417739 
L 155.131826 233.793391 
L 154.380522 233.793391 
L 154.380522 234.544696 
L 153.629217 235.296 
L 153.253565 235.296 
L 152.502261 236.047304 
L 152.502261 237.174261 
L 152.877913 237.174261 
L 153.253565 237.549913 
L 152.877913 237.925565 
L 152.877913 238.301217 
L 152.502261 238.67687 
L 152.502261 239.428174 
L 152.877913 239.803826 
L 152.877913 240.179478 
L 152.502261 240.55513 
L 152.126609 240.55513 
L 152.126609 241.306435 
L 152.877913 242.057739 
L 152.877913 242.433391 
L 152.502261 242.809043 
L 152.502261 243.936 
L 152.877913 244.311652 
L 152.502261 244.687304 
L 152.502261 245.814261 
L 152.877913 246.189913 
L 152.502261 246.565565 
L 152.502261 247.692522 
L 152.877913 248.068174 
L 152.877913 248.443826 
L 152.502261 248.819478 
L 152.126609 248.819478 
L 152.126609 249.570783 
L 152.877913 250.322087 
L 152.502261 250.697739 
L 152.126609 250.697739 
L 151.750957 251.073391 
L 151.375304 251.073391 
L 151.375304 251.449043 
L 150.999652 251.824696 
L 150.999652 253.327304 
L 151.750957 253.327304 
L 152.126609 253.702957 
L 152.877913 253.702957 
L 153.253565 253.327304 
L 156.634435 253.327304 
L 157.010087 252.951652 
L 161.893565 252.951652 
L 162.269217 252.576 
L 163.771826 252.576 
L 164.147478 252.951652 
L 165.274435 252.951652 
L 165.650087 252.576 
L 166.777043 252.576 
L 167.152696 252.200348 
L 167.528348 252.576 
L 170.533565 252.576 
L 170.909217 252.200348 
L 171.660522 252.200348 
L 171.660522 251.824696 
L 172.036174 251.449043 
L 172.411826 251.449043 
L 172.787478 251.073391 
L 172.787478 249.946435 
L 172.411826 249.570783 
L 172.411826 248.443826 
L 172.787478 248.068174 
L 173.16313 248.068174 
L 173.16313 246.941217 
L 172.787478 246.941217 
L 172.411826 246.565565 
L 172.787478 246.189913 
L 173.538783 246.189913 
L 173.538783 244.311652 
L 173.16313 243.936 
L 172.787478 243.936 
L 172.411826 243.560348 
L 172.787478 243.184696 
L 172.787478 241.682087 
L 172.036174 241.682087 
L 172.036174 242.433391 
L 171.660522 242.809043 
L 171.28487 242.433391 
L 171.28487 240.930783 
L 170.909217 240.930783 
L 170.533565 240.55513 
L 170.909217 240.179478 
L 171.28487 240.179478 
L 171.660522 239.803826 
L 175.041391 239.803826 
L 175.417043 239.428174 
L 178.422261 239.428174 
L 178.797913 239.052522 
L 179.173565 239.428174 
L 179.92487 239.428174 
L 180.300522 239.052522 
L 182.178783 239.052522 
L 182.554435 238.67687 
L 182.930087 239.052522 
L 184.808348 239.052522 
L 185.184 238.67687 
L 190.818783 238.67687 
L 191.194435 238.301217 
L 193.824 238.301217 
L 194.199652 237.925565 
L 194.575304 238.301217 
L 196.453565 238.301217 
L 196.829217 237.925565 
L 200.585739 237.925565 
L 200.961391 237.549913 
L 202.088348 237.549913 
L 202.464 237.174261 
L 202.464 236.422957 
L 202.088348 236.047304 
L 202.464 235.671652 
L 202.839652 235.671652 
L 202.839652 234.169043 
L 201.712696 234.169043 
L 201.337043 233.793391 
L 201.712696 233.417739 
L 201.712696 232.290783 
L 202.088348 231.91513 
L 202.088348 230.412522 
L 201.712696 230.03687 
L 201.712696 229.285565 
L 201.337043 228.909913 
L 201.712696 228.534261 
L 201.712696 227.782957 
L 201.337043 227.407304 
L 200.961391 227.407304 
L 200.585739 227.031652 
L 200.210087 227.031652 
L 199.834435 226.656 
L 199.458783 226.656 
L 199.08313 226.280348 
L 199.08313 224.777739 
L 198.707478 224.402087 
L 198.707478 218.391652 
L 198.331826 218.016 
L 198.707478 217.640348 
L 198.707478 216.889043 
L 197.956174 216.137739 
L 197.956174 215.010783 
L 197.580522 214.63513 
L 197.580522 213.508174 
L 197.956174 213.132522 
L 197.956174 211.629913 
L 198.331826 211.254261 
L 198.331826 210.878609 
L 198.707478 210.502957 
L 198.707478 210.127304 
L 199.08313 209.751652 
L 199.08313 209.000348 
L 198.707478 208.624696 
L 199.08313 208.249043 
L 199.834435 208.249043 
L 200.210087 207.873391 
L 200.210087 207.122087 
L 199.834435 206.746435 
L 200.210087 206.370783 
L 200.210087 204.492522 
L 199.834435 204.11687 
L 199.834435 203.741217 
L 199.458783 203.741217 
L 199.08313 203.365565 
L 198.707478 203.365565 
L 198.331826 202.989913 
L 198.707478 202.614261 
L 199.08313 202.614261 
L 199.08313 201.862957 
L 199.458783 201.487304 
L 199.458783 200.736 
L 198.707478 200.736 
L 198.707478 201.487304 
L 198.331826 201.862957 
L 197.580522 201.862957 
L 197.20487 201.487304 
L 197.20487 199.984696 
L 197.580522 199.609043 
L 197.580522 199.233391 
L 197.956174 198.857739 
L 197.956174 198.106435 
L 197.580522 197.730783 
L 197.956174 197.35513 
L 198.331826 197.35513 
L 198.331826 196.979478 
L 198.707478 196.603826 
L 198.707478 196.228174 
L 199.458783 195.47687 
L 199.834435 195.47687 
L 199.834435 195.101217 
L 200.961391 193.974261 
L 200.961391 193.598609 
L 201.337043 193.222957 
L 201.337043 192.096 
L 200.961391 191.720348 
L 200.961391 187.963826 
L 200.210087 187.963826 
L 200.210087 188.71513 
L 199.834435 189.090783 
L 199.458783 188.71513 
L 199.458783 187.212522 
L 199.08313 186.83687 
L 199.08313 185.334261 
L 198.707478 184.958609 
L 198.707478 183.080348 
L 198.331826 182.704696 
L 198.331826 178.948174 
L 198.707478 178.572522 
L 198.707478 176.694261 
L 198.331826 176.318609 
L 198.707478 175.942957 
L 198.707478 171.810783 
L 198.331826 171.43513 
L 198.331826 170.683826 
L 197.956174 170.308174 
L 197.956174 169.932522 
L 197.20487 169.932522 
L 196.829217 169.55687 
L 196.829217 169.181217 
L 196.077913 168.429913 
L 196.077913 166.927304 
L 195.702261 166.551652 
L 195.702261 163.546435 
L 195.326609 163.170783 
L 195.326609 162.419478 
L 195.702261 162.043826 
L 195.702261 161.292522 
L 195.326609 160.91687 
L 195.326609 160.165565 
L 195.702261 159.789913 
L 195.702261 159.038609 
L 195.326609 158.662957 
L 195.326609 157.160348 
L 195.702261 156.784696 
L 195.702261 155.657739 
L 195.326609 155.282087 
L 195.326609 153.403826 
L 194.950957 153.028174 
L 194.950957 151.901217 
L 194.575304 151.525565 
L 194.575304 150.398609 
L 194.199652 150.022957 
L 194.199652 149.647304 
L 193.448348 149.647304 
L 193.072696 149.271652 
L 193.072696 148.520348 
L 192.697043 148.144696 
L 192.697043 147.769043 
L 192.321391 147.393391 
L 192.697043 147.017739 
L 192.697043 146.266435 
L 193.824 145.139478 
L 194.199652 145.139478 
L 194.950957 144.388174 
L 194.950957 142.885565 
L 194.575304 142.509913 
L 194.950957 142.134261 
L 194.950957 141.382957 
L 194.575304 141.007304 
L 194.575304 139.880348 
L 195.326609 139.129043 
L 195.326609 136.87513 
L 194.575304 136.123826 
L 194.575304 134.621217 
L 194.199652 134.245565 
L 194.199652 133.869913 
L 193.824 133.494261 
L 193.824 130.489043 
L 194.575304 129.737739 
L 194.575304 129.362087 
L 196.829217 127.108174 
L 196.829217 126.732522 
L 197.20487 126.35687 
L 197.20487 124.478609 
L 196.829217 124.102957 
L 196.829217 123.727304 
L 196.453565 123.351652 
L 196.453565 122.976 
L 196.077913 122.600348 
L 196.077913 122.224696 
L 195.326609 121.473391 
L 195.326609 121.097739 
L 194.950957 121.097739 
L 194.575304 120.722087 
L 194.575304 120.346435 
L 194.199652 120.346435 
L 193.824 119.970783 
L 193.824 119.219478 
L 193.448348 119.219478 
L 192.697043 118.468174 
L 192.697043 116.965565 
L 193.072696 116.589913 
L 193.072696 114.336 
L 192.697043 113.960348 
L 192.697043 108.701217 
L 193.072696 108.325565 
L 193.072696 107.198609 
L 193.448348 106.822957 
L 193.448348 106.071652 
L 193.824 105.696 
L 193.824 105.320348 
L 194.199652 104.944696 
L 194.199652 103.817739 
L 194.575304 103.442087 
L 194.575304 101.188174 
L 194.199652 100.812522 
L 194.199652 100.43687 
L 193.448348 99.685565 
L 193.448348 98.934261 
L 192.321391 97.807304 
L 192.321391 97.056 
L 191.570087 96.304696 
L 191.570087 95.177739 
L 191.945739 94.802087 
L 191.945739 94.426435 
L 192.321391 94.050783 
L 193.072696 94.050783 
L 193.448348 93.67513 
L 193.824 93.67513 
L 193.824 93.299478 
L 194.575304 92.548174 
L 194.575304 90.669913 
L 194.950957 90.294261 
L 194.950957 88.416 
L 194.575304 88.040348 
L 194.575304 86.913391 
L 194.199652 86.537739 
L 194.199652 85.03513 
L 193.824 84.659478 
L 193.824 81.654261 
L 194.199652 81.278609 
L 194.199652 80.151652 
L 194.575304 79.776 
L 194.575304 78.273391 
L 194.950957 77.897739 
L 194.950957 74.51687 
L 194.575304 74.141217 
L 194.575304 73.765565 
L 194.199652 73.389913 
L 193.824 73.389913 
L 193.072696 72.638609 
L 192.697043 72.638609 
L 192.321391 72.262957 
L 192.321391 71.887304 
L 191.570087 71.136 
L 191.570087 70.760348 
L 191.194435 70.384696 
L 191.194435 69.257739 
L 191.570087 68.882087 
L 191.570087 68.506435 
L 192.321391 67.75513 
L 192.321391 67.379478 
L 192.697043 67.003826 
L 192.697043 66.628174 
L 193.448348 65.87687 
L 193.448348 65.501217 
L 193.824 65.125565 
L 193.824 60.617739 
L 193.448348 60.242087 
L 193.448348 59.490783 
L 193.072696 59.11513 
L 193.072696 58.739478 
L 192.697043 58.363826 
L 192.697043 57.23687 
L 192.321391 56.861217 
L 192.321391 56.109913 
L 191.945739 55.734261 
L 191.945739 54.982957 
L 192.321391 54.607304 
L 192.321391 53.856 
L 192.697043 53.480348 
L 192.697043 52.729043 
L 193.072696 52.353391 
L 193.072696 51.602087 
L 193.448348 51.226435 
L 193.448348 48.972522 
L 193.072696 48.59687 
L 193.072696 47.469913 
L 191.570087 45.967304 
L 191.570087 45.591652 
L 191.194435 45.216 
L 191.194435 44.089043 
L 191.570087 43.713391 
L 191.570087 42.586435 
L 191.194435 42.210783 
L 190.818783 42.210783 
L 190.44313 41.83513 
L 190.44313 41.459478 
L 190.067478 41.083826 
L 190.067478 40.708174 
L 189.316174 39.95687 
L 189.316174 30.565565 
L 188.940522 30.189913 
L 188.940522 27.184696 
L 188.56487 26.809043 
L 188.940522 26.433391 
L 188.940522 23.428174 
L 188.56487 23.428174 
L 188.189217 23.052522 
L 188.56487 22.67687 
L 188.56487 21.174261 
L 188.189217 21.174261 
L 187.813565 20.798609 
L 187.813565 19.671652 
L 184.432696 19.671652 
L 184.057043 19.296 
L 183.305739 19.296 
L 183.305739 19.296 
" style="fill:none;stroke:#000000;stroke-linecap:square;stroke-width:1.5;"/>
   </g>
  </g>
 </g>
 <defs>
  <clipPath id="p630b15131d">
   <rect height="266.112" width="204.955826" x="7.2" y="7.2"/>
  </clipPath>
 </defs>
</svg>
