<?xml version="1.0" encoding="utf-8" standalone="no"?>
<!DOCTYPE svg PUBLIC "-//W3C//DTD SVG 1.1//EN"
  "http://www.w3.org/Graphics/SVG/1.1/DTD/svg11.dtd">
<!-- Created with matplotlib (https://matplotlib.org/) -->
<svg height="266.112pt" version="1.1" viewBox="0 0 317.12829 266.112" width="317.12829pt" xmlns="http://www.w3.org/2000/svg" xmlns:xlink="http://www.w3.org/1999/xlink">
 <defs>
  <style type="text/css">
*{stroke-linecap:butt;stroke-linejoin:round;}
  </style>
 </defs>
 <g id="figure_1">
  <g id="patch_1">
   <path d="M 0 266.112 
L 317.12829 266.112 
L 317.12829 0 
L 0 0 
z
" style="fill:#ffffff;"/>
  </g>
  <g id="axes_1">
   <g id="line2d_1">
    <path clip-path="url(#p14f9912ae0)" d="M 204.942591 175.047295 
L 204.942591 181.314653 
L 203.689119 182.568124 
L 201.182176 182.568124 
L 201.182176 193.849368 
L 233.772435 193.849368 
L 233.772435 176.300767 
L 231.265492 176.300767 
L 230.012021 175.047295 
L 204.942591 175.047295 
" style="fill:none;stroke:#000000;stroke-linecap:square;stroke-width:1.5;"/>
   </g>
   <g id="line2d_2">
    <path clip-path="url(#p14f9912ae0)" d="M 198.675233 172.540352 
L 199.928705 171.286881 
L 236.279378 171.286881 
L 237.53285 172.540352 
L 237.53285 173.793824 
L 236.279378 175.047295 
L 236.279378 190.088953 
L 237.53285 190.088953 
L 238.786321 191.342425 
L 238.786321 196.356311 
L 237.53285 197.609782 
L 226.251606 197.609782 
L 224.998135 196.356311 
L 201.182176 196.356311 
L 199.928705 197.609782 
L 198.675233 196.356311 
L 198.675233 172.540352 
" style="fill:none;stroke:#000000;stroke-linecap:square;stroke-width:1.5;"/>
   </g>
   <g id="line2d_3">
    <path clip-path="url(#p14f9912ae0)" d="M 141.015544 168.779938 
L 143.522487 168.779938 
L 144.775959 170.033409 
L 144.775959 171.286881 
L 146.02943 171.286881 
L 147.282902 172.540352 
L 149.789845 172.540352 
L 156.057202 178.80771 
L 156.057202 180.061181 
L 157.310674 181.314653 
L 157.310674 185.075067 
L 156.057202 186.328539 
L 156.057202 187.58201 
L 154.803731 188.835482 
L 154.803731 191.342425 
L 152.296788 193.849368 
L 151.043316 193.849368 
L 149.789845 195.102839 
L 143.522487 195.102839 
L 142.269016 193.849368 
L 141.015544 193.849368 
L 139.762073 192.595896 
L 138.508601 192.595896 
L 136.001658 190.088953 
L 136.001658 188.835482 
L 134.748187 187.58201 
L 134.748187 186.328539 
L 136.001658 185.075067 
L 138.508601 187.58201 
L 138.508601 188.835482 
L 139.762073 190.088953 
L 141.015544 190.088953 
L 142.269016 191.342425 
L 147.282902 191.342425 
L 148.536373 190.088953 
L 149.789845 190.088953 
L 149.789845 188.835482 
L 152.296788 186.328539 
L 152.296788 183.821596 
L 151.043316 182.568124 
L 151.043316 181.314653 
L 148.536373 178.80771 
L 148.536373 177.554238 
L 147.282902 176.300767 
L 143.522487 176.300767 
L 142.269016 177.554238 
L 137.25513 177.554238 
L 137.25513 178.80771 
L 136.001658 180.061181 
L 136.001658 185.075067 
L 134.748187 186.328539 
L 133.494715 185.075067 
L 133.494715 176.300767 
L 134.748187 175.047295 
L 134.748187 173.793824 
L 137.25513 171.286881 
L 138.508601 171.286881 
L 141.015544 168.779938 
" style="fill:none;stroke:#000000;stroke-linecap:square;stroke-width:1.5;"/>
   </g>
   <g id="line2d_4">
    <path clip-path="url(#p14f9912ae0)" d="M 138.508601 148.724394 
L 139.762073 147.470922 
L 141.015544 148.724394 
L 139.762073 149.977865 
L 138.508601 148.724394 
" style="fill:none;stroke:#000000;stroke-linecap:square;stroke-width:1.5;"/>
   </g>
   <g id="line2d_5">
    <path clip-path="url(#p14f9912ae0)" d="M 139.762073 147.470922 
L 141.015544 146.217451 
L 142.269016 147.470922 
L 141.015544 148.724394 
L 139.762073 147.470922 
" style="fill:none;stroke:#000000;stroke-linecap:square;stroke-width:1.5;"/>
   </g>
   <g id="line2d_6">
    <path clip-path="url(#p14f9912ae0)" d="M 241.293264 123.654964 
L 242.546736 124.908435 
L 242.546736 126.161907 
L 236.279378 132.429264 
L 235.025907 131.175793 
L 235.025907 129.922321 
L 241.293264 123.654964 
" style="fill:none;stroke:#000000;stroke-linecap:square;stroke-width:1.5;"/>
   </g>
   <g id="line2d_7">
    <path clip-path="url(#p14f9912ae0)" d="M 219.984249 122.401492 
L 221.23772 121.148021 
L 222.491192 122.401492 
L 221.23772 123.654964 
L 219.984249 122.401492 
" style="fill:none;stroke:#000000;stroke-linecap:square;stroke-width:1.5;"/>
   </g>
   <g id="line2d_8">
    <path clip-path="url(#p14f9912ae0)" d="M 221.23772 121.148021 
L 222.491192 119.894549 
L 223.744663 121.148021 
L 222.491192 122.401492 
L 221.23772 121.148021 
" style="fill:none;stroke:#000000;stroke-linecap:square;stroke-width:1.5;"/>
   </g>
   <g id="line2d_9">
    <path clip-path="url(#p14f9912ae0)" d="M 222.491192 119.894549 
L 223.744663 118.641078 
L 224.998135 119.894549 
L 223.744663 121.148021 
L 222.491192 119.894549 
" style="fill:none;stroke:#000000;stroke-linecap:square;stroke-width:1.5;"/>
   </g>
   <g id="line2d_10">
    <path clip-path="url(#p14f9912ae0)" d="M 223.744663 118.641078 
L 224.998135 117.387606 
L 226.251606 118.641078 
L 224.998135 119.894549 
L 223.744663 118.641078 
" style="fill:none;stroke:#000000;stroke-linecap:square;stroke-width:1.5;"/>
   </g>
   <g id="line2d_11">
    <path clip-path="url(#p14f9912ae0)" d="M 216.223834 117.387606 
L 217.477306 118.641078 
L 217.477306 122.401492 
L 219.984249 122.401492 
L 221.23772 123.654964 
L 221.23772 127.415378 
L 222.491192 127.415378 
L 224.998135 129.922321 
L 224.998135 131.175793 
L 226.251606 131.175793 
L 228.758549 133.682736 
L 231.265492 133.682736 
L 233.772435 131.175793 
L 235.025907 131.175793 
L 236.279378 132.429264 
L 233.772435 134.936207 
L 233.772435 136.189679 
L 232.518964 137.44315 
L 232.518964 138.696622 
L 231.265492 139.950093 
L 228.758549 139.950093 
L 224.998135 136.189679 
L 223.744663 136.189679 
L 219.984249 132.429264 
L 218.730777 132.429264 
L 214.970363 128.66885 
L 213.716891 128.66885 
L 209.956477 124.908435 
L 209.956477 123.654964 
L 216.223834 117.387606 
" style="fill:none;stroke:#000000;stroke-linecap:square;stroke-width:1.5;"/>
   </g>
   <g id="line2d_12">
    <path clip-path="url(#p14f9912ae0)" d="M 224.998135 117.387606 
L 226.251606 116.134135 
L 227.505078 117.387606 
L 226.251606 118.641078 
L 224.998135 117.387606 
" style="fill:none;stroke:#000000;stroke-linecap:square;stroke-width:1.5;"/>
   </g>
   <g id="line2d_13">
    <path clip-path="url(#p14f9912ae0)" d="M 226.251606 116.134135 
L 227.505078 114.880663 
L 228.758549 116.134135 
L 227.505078 117.387606 
L 226.251606 116.134135 
" style="fill:none;stroke:#000000;stroke-linecap:square;stroke-width:1.5;"/>
   </g>
   <g id="line2d_14">
    <path clip-path="url(#p14f9912ae0)" d="M 227.505078 114.880663 
L 228.758549 113.627192 
L 230.012021 114.880663 
L 228.758549 116.134135 
L 227.505078 114.880663 
" style="fill:none;stroke:#000000;stroke-linecap:square;stroke-width:1.5;"/>
   </g>
   <g id="line2d_15">
    <path clip-path="url(#p14f9912ae0)" d="M 85.862798 111.120249 
L 87.116269 109.866777 
L 88.369741 109.866777 
L 90.876684 112.37372 
L 92.130155 112.37372 
L 97.144041 117.387606 
L 98.397513 117.387606 
L 104.66487 123.654964 
L 105.918342 123.654964 
L 112.185699 129.922321 
L 113.439171 129.922321 
L 118.453057 134.936207 
L 119.706528 134.936207 
L 125.973886 141.203565 
L 127.227358 141.203565 
L 132.241244 146.217451 
L 133.494715 146.217451 
L 136.001658 148.724394 
L 138.508601 148.724394 
L 139.762073 149.977865 
L 138.508601 151.231337 
L 137.25513 151.231337 
L 137.25513 152.484808 
L 133.494715 156.245223 
L 128.480829 151.231337 
L 127.227358 151.231337 
L 92.130155 116.134135 
L 90.876684 116.134135 
L 85.862798 111.120249 
" style="fill:none;stroke:#000000;stroke-linecap:square;stroke-width:1.5;"/>
   </g>
   <g id="line2d_16">
    <path clip-path="url(#p14f9912ae0)" d="M 80.848912 107.359834 
L 82.102383 106.106363 
L 83.355855 106.106363 
L 87.116269 109.866777 
L 85.862798 111.120249 
L 84.609326 111.120249 
L 80.848912 107.359834 
" style="fill:none;stroke:#000000;stroke-linecap:square;stroke-width:1.5;"/>
   </g>
   <g id="line2d_17">
    <path clip-path="url(#p14f9912ae0)" d="M 226.251606 104.852891 
L 227.505078 104.852891 
L 228.758549 106.106363 
L 228.758549 107.359834 
L 230.012021 107.359834 
L 241.293264 118.641078 
L 242.546736 118.641078 
L 243.800207 119.894549 
L 245.053679 119.894549 
L 246.30715 121.148021 
L 246.30715 122.401492 
L 245.053679 123.654964 
L 243.800207 123.654964 
L 242.546736 124.908435 
L 241.293264 123.654964 
L 241.293264 121.148021 
L 240.039793 121.148021 
L 233.772435 114.880663 
L 230.012021 114.880663 
L 228.758549 113.627192 
L 228.758549 111.120249 
L 224.998135 111.120249 
L 217.477306 118.641078 
L 216.223834 117.387606 
L 216.223834 116.134135 
L 222.491192 109.866777 
L 222.491192 108.613306 
L 226.251606 104.852891 
" style="fill:none;stroke:#000000;stroke-linecap:square;stroke-width:1.5;"/>
   </g>
   <g id="line2d_18">
    <path clip-path="url(#p14f9912ae0)" d="M 79.59544 106.106363 
L 80.848912 104.852891 
L 82.102383 106.106363 
L 80.848912 107.359834 
L 79.59544 106.106363 
" style="fill:none;stroke:#000000;stroke-linecap:square;stroke-width:1.5;"/>
   </g>
   <g id="line2d_19">
    <path clip-path="url(#p14f9912ae0)" d="M 78.341969 104.852891 
L 79.59544 103.59942 
L 80.848912 104.852891 
L 79.59544 106.106363 
L 78.341969 104.852891 
" style="fill:none;stroke:#000000;stroke-linecap:square;stroke-width:1.5;"/>
   </g>
   <g id="line2d_20">
    <path clip-path="url(#p14f9912ae0)" d="M 73.328083 101.092477 
L 74.581554 99.839005 
L 75.835026 99.839005 
L 79.59544 103.59942 
L 78.341969 104.852891 
L 77.088497 104.852891 
L 73.328083 101.092477 
" style="fill:none;stroke:#000000;stroke-linecap:square;stroke-width:1.5;"/>
   </g>
   <g id="line2d_21">
    <path clip-path="url(#p14f9912ae0)" d="M 69.567668 98.585534 
L 70.82114 97.332062 
L 72.074611 97.332062 
L 74.581554 99.839005 
L 73.328083 101.092477 
L 72.074611 101.092477 
L 69.567668 98.585534 
" style="fill:none;stroke:#000000;stroke-linecap:square;stroke-width:1.5;"/>
   </g>
   <g id="line2d_22">
    <path clip-path="url(#p14f9912ae0)" d="M 68.314197 97.332062 
L 69.567668 96.078591 
L 70.82114 97.332062 
L 69.567668 98.585534 
L 68.314197 97.332062 
" style="fill:none;stroke:#000000;stroke-linecap:square;stroke-width:1.5;"/>
   </g>
   <g id="line2d_23">
    <path clip-path="url(#p14f9912ae0)" d="M 62.046839 92.318176 
L 63.300311 91.064705 
L 64.553782 91.064705 
L 69.567668 96.078591 
L 68.314197 97.332062 
L 67.060725 97.332062 
L 62.046839 92.318176 
" style="fill:none;stroke:#000000;stroke-linecap:square;stroke-width:1.5;"/>
   </g>
   <g id="line2d_24">
    <path clip-path="url(#p14f9912ae0)" d="M 48.258653 79.783461 
L 49.512124 78.52999 
L 50.765596 78.52999 
L 52.019067 79.783461 
L 53.272539 79.783461 
L 54.52601 81.036933 
L 55.779482 81.036933 
L 58.286425 83.543876 
L 63.300311 83.543876 
L 65.807254 86.050819 
L 64.553782 87.30429 
L 63.300311 87.30429 
L 63.300311 91.064705 
L 62.046839 92.318176 
L 60.793368 92.318176 
L 55.779482 87.30429 
L 55.779482 86.050819 
L 53.272539 86.050819 
L 52.019067 84.797347 
L 52.019067 82.290404 
L 50.765596 82.290404 
L 48.258653 79.783461 
" style="fill:none;stroke:#000000;stroke-linecap:square;stroke-width:1.5;"/>
   </g>
   <g id="line2d_25">
    <path clip-path="url(#p14f9912ae0)" d="M 181.126632 58.474446 
L 182.380104 57.220974 
L 206.196062 57.220974 
L 207.449534 58.474446 
L 207.449534 68.502218 
L 206.196062 69.755689 
L 204.942591 68.502218 
L 204.942591 62.23486 
L 203.689119 60.981389 
L 203.689119 59.727917 
L 184.887047 59.727917 
L 184.887047 68.502218 
L 183.633575 69.755689 
L 182.380104 68.502218 
L 182.380104 62.23486 
L 181.126632 60.981389 
L 181.126632 58.474446 
" style="fill:none;stroke:#000000;stroke-linecap:square;stroke-width:1.5;"/>
   </g>
   <g id="line2d_26">
    <path clip-path="url(#p14f9912ae0)" d="M 14.414922 12.096 
L 14.414922 254.016 
L 302.713368 254.016 
L 302.713368 12.096 
L 14.414922 12.096 
" style="fill:none;stroke:#000000;stroke-linecap:square;stroke-width:1.5;"/>
   </g>
  </g>
 </g>
 <defs>
  <clipPath id="p14f9912ae0">
   <rect height="266.112" width="317.12829" x="0" y="-0"/>
  </clipPath>
 </defs>
</svg>
