<?xml version="1.0" encoding="utf-8" standalone="no"?>
<!DOCTYPE svg PUBLIC "-//W3C//DTD SVG 1.1//EN"
  "http://www.w3.org/Graphics/SVG/1.1/DTD/svg11.dtd">
<!-- Created with matplotlib (https://matplotlib.org/) -->
<svg height="280.512pt" version="1.1" viewBox="0 0 331.52829 280.512" width="331.52829pt" xmlns="http://www.w3.org/2000/svg" xmlns:xlink="http://www.w3.org/1999/xlink">
 <defs>
  <style type="text/css">
*{stroke-linecap:butt;stroke-linejoin:round;}
  </style>
 </defs>
 <g id="figure_1">
  <g id="patch_1">
   <path d="M 0 280.512 
L 331.52829 280.512 
L 331.52829 0 
L 0 0 
z
" style="fill:#ffffff;"/>
  </g>
  <g id="axes_1">
   <g id="line2d_1">
    <path clip-path="url(#pdc3273dd24)" d="M 212.142591 182.247295 
L 212.142591 188.514653 
L 210.889119 189.768124 
L 208.382176 189.768124 
L 208.382176 201.049368 
L 240.972435 201.049368 
L 240.972435 183.500767 
L 238.465492 183.500767 
L 237.212021 182.247295 
L 212.142591 182.247295 
" style="fill:none;stroke:#000000;stroke-linecap:square;stroke-width:1.5;"/>
   </g>
   <g id="line2d_2">
    <path clip-path="url(#pdc3273dd24)" d="M 205.875233 179.740352 
L 207.128705 178.486881 
L 243.479378 178.486881 
L 244.73285 179.740352 
L 244.73285 180.993824 
L 243.479378 182.247295 
L 243.479378 197.288953 
L 244.73285 197.288953 
L 245.986321 198.542425 
L 245.986321 203.556311 
L 244.73285 204.809782 
L 233.451606 204.809782 
L 232.198135 203.556311 
L 208.382176 203.556311 
L 207.128705 204.809782 
L 205.875233 203.556311 
L 205.875233 179.740352 
" style="fill:none;stroke:#000000;stroke-linecap:square;stroke-width:1.5;"/>
   </g>
   <g id="line2d_3">
    <path clip-path="url(#pdc3273dd24)" d="M 148.215544 175.979938 
L 150.722487 175.979938 
L 151.975959 177.233409 
L 151.975959 178.486881 
L 153.22943 178.486881 
L 154.482902 179.740352 
L 156.989845 179.740352 
L 163.257202 186.00771 
L 163.257202 187.261181 
L 164.510674 188.514653 
L 164.510674 192.275067 
L 163.257202 193.528539 
L 163.257202 194.78201 
L 162.003731 196.035482 
L 162.003731 198.542425 
L 159.496788 201.049368 
L 158.243316 201.049368 
L 156.989845 202.302839 
L 150.722487 202.302839 
L 149.469016 201.049368 
L 148.215544 201.049368 
L 146.962073 199.795896 
L 145.708601 199.795896 
L 143.201658 197.288953 
L 143.201658 196.035482 
L 141.948187 194.78201 
L 141.948187 193.528539 
L 143.201658 192.275067 
L 145.708601 194.78201 
L 145.708601 196.035482 
L 146.962073 197.288953 
L 148.215544 197.288953 
L 149.469016 198.542425 
L 154.482902 198.542425 
L 155.736373 197.288953 
L 156.989845 197.288953 
L 156.989845 196.035482 
L 159.496788 193.528539 
L 159.496788 191.021596 
L 158.243316 189.768124 
L 158.243316 188.514653 
L 155.736373 186.00771 
L 155.736373 184.754238 
L 154.482902 183.500767 
L 150.722487 183.500767 
L 149.469016 184.754238 
L 144.45513 184.754238 
L 144.45513 186.00771 
L 143.201658 187.261181 
L 143.201658 192.275067 
L 141.948187 193.528539 
L 140.694715 192.275067 
L 140.694715 183.500767 
L 141.948187 182.247295 
L 141.948187 180.993824 
L 144.45513 178.486881 
L 145.708601 178.486881 
L 148.215544 175.979938 
" style="fill:none;stroke:#000000;stroke-linecap:square;stroke-width:1.5;"/>
   </g>
   <g id="line2d_4">
    <path clip-path="url(#pdc3273dd24)" d="M 145.708601 155.924394 
L 146.962073 154.670922 
L 148.215544 155.924394 
L 146.962073 157.177865 
L 145.708601 155.924394 
" style="fill:none;stroke:#000000;stroke-linecap:square;stroke-width:1.5;"/>
   </g>
   <g id="line2d_5">
    <path clip-path="url(#pdc3273dd24)" d="M 146.962073 154.670922 
L 148.215544 153.417451 
L 149.469016 154.670922 
L 148.215544 155.924394 
L 146.962073 154.670922 
" style="fill:none;stroke:#000000;stroke-linecap:square;stroke-width:1.5;"/>
   </g>
   <g id="line2d_6">
    <path clip-path="url(#pdc3273dd24)" d="M 248.493264 130.854964 
L 249.746736 132.108435 
L 249.746736 133.361907 
L 243.479378 139.629264 
L 242.225907 138.375793 
L 242.225907 137.122321 
L 248.493264 130.854964 
" style="fill:none;stroke:#000000;stroke-linecap:square;stroke-width:1.5;"/>
   </g>
   <g id="line2d_7">
    <path clip-path="url(#pdc3273dd24)" d="M 227.184249 129.601492 
L 228.43772 128.348021 
L 229.691192 129.601492 
L 228.43772 130.854964 
L 227.184249 129.601492 
" style="fill:none;stroke:#000000;stroke-linecap:square;stroke-width:1.5;"/>
   </g>
   <g id="line2d_8">
    <path clip-path="url(#pdc3273dd24)" d="M 228.43772 128.348021 
L 229.691192 127.094549 
L 230.944663 128.348021 
L 229.691192 129.601492 
L 228.43772 128.348021 
" style="fill:none;stroke:#000000;stroke-linecap:square;stroke-width:1.5;"/>
   </g>
   <g id="line2d_9">
    <path clip-path="url(#pdc3273dd24)" d="M 229.691192 127.094549 
L 230.944663 125.841078 
L 232.198135 127.094549 
L 230.944663 128.348021 
L 229.691192 127.094549 
" style="fill:none;stroke:#000000;stroke-linecap:square;stroke-width:1.5;"/>
   </g>
   <g id="line2d_10">
    <path clip-path="url(#pdc3273dd24)" d="M 230.944663 125.841078 
L 232.198135 124.587606 
L 233.451606 125.841078 
L 232.198135 127.094549 
L 230.944663 125.841078 
" style="fill:none;stroke:#000000;stroke-linecap:square;stroke-width:1.5;"/>
   </g>
   <g id="line2d_11">
    <path clip-path="url(#pdc3273dd24)" d="M 223.423834 124.587606 
L 224.677306 125.841078 
L 224.677306 129.601492 
L 227.184249 129.601492 
L 228.43772 130.854964 
L 228.43772 134.615378 
L 229.691192 134.615378 
L 232.198135 137.122321 
L 232.198135 138.375793 
L 233.451606 138.375793 
L 235.958549 140.882736 
L 238.465492 140.882736 
L 240.972435 138.375793 
L 242.225907 138.375793 
L 243.479378 139.629264 
L 240.972435 142.136207 
L 240.972435 143.389679 
L 239.718964 144.64315 
L 239.718964 145.896622 
L 238.465492 147.150093 
L 235.958549 147.150093 
L 232.198135 143.389679 
L 230.944663 143.389679 
L 227.184249 139.629264 
L 225.930777 139.629264 
L 222.170363 135.86885 
L 220.916891 135.86885 
L 217.156477 132.108435 
L 217.156477 130.854964 
L 223.423834 124.587606 
" style="fill:none;stroke:#000000;stroke-linecap:square;stroke-width:1.5;"/>
   </g>
   <g id="line2d_12">
    <path clip-path="url(#pdc3273dd24)" d="M 232.198135 124.587606 
L 233.451606 123.334135 
L 234.705078 124.587606 
L 233.451606 125.841078 
L 232.198135 124.587606 
" style="fill:none;stroke:#000000;stroke-linecap:square;stroke-width:1.5;"/>
   </g>
   <g id="line2d_13">
    <path clip-path="url(#pdc3273dd24)" d="M 233.451606 123.334135 
L 234.705078 122.080663 
L 235.958549 123.334135 
L 234.705078 124.587606 
L 233.451606 123.334135 
" style="fill:none;stroke:#000000;stroke-linecap:square;stroke-width:1.5;"/>
   </g>
   <g id="line2d_14">
    <path clip-path="url(#pdc3273dd24)" d="M 234.705078 122.080663 
L 235.958549 120.827192 
L 237.212021 122.080663 
L 235.958549 123.334135 
L 234.705078 122.080663 
" style="fill:none;stroke:#000000;stroke-linecap:square;stroke-width:1.5;"/>
   </g>
   <g id="line2d_15">
    <path clip-path="url(#pdc3273dd24)" d="M 93.062798 118.320249 
L 94.316269 117.066777 
L 95.569741 117.066777 
L 98.076684 119.57372 
L 99.330155 119.57372 
L 104.344041 124.587606 
L 105.597513 124.587606 
L 111.86487 130.854964 
L 113.118342 130.854964 
L 119.385699 137.122321 
L 120.639171 137.122321 
L 125.653057 142.136207 
L 126.906528 142.136207 
L 133.173886 148.403565 
L 134.427358 148.403565 
L 139.441244 153.417451 
L 140.694715 153.417451 
L 143.201658 155.924394 
L 145.708601 155.924394 
L 146.962073 157.177865 
L 145.708601 158.431337 
L 144.45513 158.431337 
L 144.45513 159.684808 
L 140.694715 163.445223 
L 135.680829 158.431337 
L 134.427358 158.431337 
L 99.330155 123.334135 
L 98.076684 123.334135 
L 93.062798 118.320249 
" style="fill:none;stroke:#000000;stroke-linecap:square;stroke-width:1.5;"/>
   </g>
   <g id="line2d_16">
    <path clip-path="url(#pdc3273dd24)" d="M 88.048912 114.559834 
L 89.302383 113.306363 
L 90.555855 113.306363 
L 94.316269 117.066777 
L 93.062798 118.320249 
L 91.809326 118.320249 
L 88.048912 114.559834 
" style="fill:none;stroke:#000000;stroke-linecap:square;stroke-width:1.5;"/>
   </g>
   <g id="line2d_17">
    <path clip-path="url(#pdc3273dd24)" d="M 233.451606 112.052891 
L 234.705078 112.052891 
L 235.958549 113.306363 
L 235.958549 114.559834 
L 237.212021 114.559834 
L 248.493264 125.841078 
L 249.746736 125.841078 
L 251.000207 127.094549 
L 252.253679 127.094549 
L 253.50715 128.348021 
L 253.50715 129.601492 
L 252.253679 130.854964 
L 251.000207 130.854964 
L 249.746736 132.108435 
L 248.493264 130.854964 
L 248.493264 128.348021 
L 247.239793 128.348021 
L 240.972435 122.080663 
L 237.212021 122.080663 
L 235.958549 120.827192 
L 235.958549 118.320249 
L 232.198135 118.320249 
L 224.677306 125.841078 
L 223.423834 124.587606 
L 223.423834 123.334135 
L 229.691192 117.066777 
L 229.691192 115.813306 
L 233.451606 112.052891 
" style="fill:none;stroke:#000000;stroke-linecap:square;stroke-width:1.5;"/>
   </g>
   <g id="line2d_18">
    <path clip-path="url(#pdc3273dd24)" d="M 86.79544 113.306363 
L 88.048912 112.052891 
L 89.302383 113.306363 
L 88.048912 114.559834 
L 86.79544 113.306363 
" style="fill:none;stroke:#000000;stroke-linecap:square;stroke-width:1.5;"/>
   </g>
   <g id="line2d_19">
    <path clip-path="url(#pdc3273dd24)" d="M 85.541969 112.052891 
L 86.79544 110.79942 
L 88.048912 112.052891 
L 86.79544 113.306363 
L 85.541969 112.052891 
" style="fill:none;stroke:#000000;stroke-linecap:square;stroke-width:1.5;"/>
   </g>
   <g id="line2d_20">
    <path clip-path="url(#pdc3273dd24)" d="M 80.528083 108.292477 
L 81.781554 107.039005 
L 83.035026 107.039005 
L 86.79544 110.79942 
L 85.541969 112.052891 
L 84.288497 112.052891 
L 80.528083 108.292477 
" style="fill:none;stroke:#000000;stroke-linecap:square;stroke-width:1.5;"/>
   </g>
   <g id="line2d_21">
    <path clip-path="url(#pdc3273dd24)" d="M 76.767668 105.785534 
L 78.02114 104.532062 
L 79.274611 104.532062 
L 81.781554 107.039005 
L 80.528083 108.292477 
L 79.274611 108.292477 
L 76.767668 105.785534 
" style="fill:none;stroke:#000000;stroke-linecap:square;stroke-width:1.5;"/>
   </g>
   <g id="line2d_22">
    <path clip-path="url(#pdc3273dd24)" d="M 75.514197 104.532062 
L 76.767668 103.278591 
L 78.02114 104.532062 
L 76.767668 105.785534 
L 75.514197 104.532062 
" style="fill:none;stroke:#000000;stroke-linecap:square;stroke-width:1.5;"/>
   </g>
   <g id="line2d_23">
    <path clip-path="url(#pdc3273dd24)" d="M 69.246839 99.518176 
L 70.500311 98.264705 
L 71.753782 98.264705 
L 76.767668 103.278591 
L 75.514197 104.532062 
L 74.260725 104.532062 
L 69.246839 99.518176 
" style="fill:none;stroke:#000000;stroke-linecap:square;stroke-width:1.5;"/>
   </g>
   <g id="line2d_24">
    <path clip-path="url(#pdc3273dd24)" d="M 55.458653 86.983461 
L 56.712124 85.72999 
L 57.965596 85.72999 
L 59.219067 86.983461 
L 60.472539 86.983461 
L 61.72601 88.236933 
L 62.979482 88.236933 
L 65.486425 90.743876 
L 70.500311 90.743876 
L 73.007254 93.250819 
L 71.753782 94.50429 
L 70.500311 94.50429 
L 70.500311 98.264705 
L 69.246839 99.518176 
L 67.993368 99.518176 
L 62.979482 94.50429 
L 62.979482 93.250819 
L 60.472539 93.250819 
L 59.219067 91.997347 
L 59.219067 89.490404 
L 57.965596 89.490404 
L 55.458653 86.983461 
" style="fill:none;stroke:#000000;stroke-linecap:square;stroke-width:1.5;"/>
   </g>
   <g id="line2d_25">
    <path clip-path="url(#pdc3273dd24)" d="M 188.326632 65.674446 
L 189.580104 64.420974 
L 213.396062 64.420974 
L 214.649534 65.674446 
L 214.649534 75.702218 
L 213.396062 76.955689 
L 212.142591 75.702218 
L 212.142591 69.43486 
L 210.889119 68.181389 
L 210.889119 66.927917 
L 192.087047 66.927917 
L 192.087047 75.702218 
L 190.833575 76.955689 
L 189.580104 75.702218 
L 189.580104 69.43486 
L 188.326632 68.181389 
L 188.326632 65.674446 
" style="fill:none;stroke:#000000;stroke-linecap:square;stroke-width:1.5;"/>
   </g>
   <g id="line2d_26">
    <path clip-path="url(#pdc3273dd24)" d="M 21.614922 19.296 
L 21.614922 261.216 
L 309.913368 261.216 
L 309.913368 19.296 
L 21.614922 19.296 
" style="fill:none;stroke:#000000;stroke-linecap:square;stroke-width:1.5;"/>
   </g>
  </g>
 </g>
 <defs>
  <clipPath id="pdc3273dd24">
   <rect height="266.112" width="317.12829" x="7.2" y="7.2"/>
  </clipPath>
 </defs>
</svg>
